<?xml version="1.0" encoding="UTF-8"?>
<svg id="Layer_1" data-name="Layer 1" xmlns="http://www.w3.org/2000/svg" viewBox="0 0 36 36">
  <path d="m18,.7C8.21.7.26,8.64.26,18.44c0,7.84,5.08,14.49,12.13,16.83.89.16,1.17-.39,1.17-.85v-3.3c-4.93,1.07-5.96-2.09-5.96-2.09-.81-2.05-1.97-2.6-1.97-2.6-1.61-1.1.12-1.08.12-1.08,1.78.12,2.72,1.83,2.72,1.83,1.58,2.71,4.15,1.93,5.16,1.47.16-1.15.62-1.93,1.13-2.37-3.94-.45-8.08-1.97-8.08-8.77,0-1.94.69-3.52,1.83-4.76-.18-.45-.79-2.25.17-4.69,0,0,1.49-.48,4.88,1.82,1.41-.39,2.93-.59,4.44-.6,1.51,0,3.03.2,4.44.6,3.39-2.29,4.87-1.82,4.87-1.82.97,2.44.36,4.25.17,4.69,1.14,1.24,1.83,2.82,1.83,4.76,0,6.81-4.15,8.31-8.1,8.75.64.55,1.22,1.63,1.22,3.28v4.87c0,.47.28,1.03,1.18.85,7.04-2.35,12.12-9,12.12-16.83C35.74,8.64,27.8.7,18,.7Z" fill="#313142"/>
</svg>